<mxfile host="app.diagrams.net" modified="2021-08-16T03:14:30.385Z" agent="5.0 (Windows NT 10.0; Win64; x64) AppleWebKit/537.36 (KHTML, like Gecko) Chrome/92.0.4515.131 Safari/537.36" etag="ry1sAGsUiRkp0vimqvmf" version="14.9.6" type="github">
  <diagram id="c4gYdcEk34Eoedmi_lxC" name="Page-1">
    <mxGraphModel dx="723" dy="402" grid="1" gridSize="10" guides="1" tooltips="1" connect="1" arrows="1" fold="1" page="1" pageScale="1" pageWidth="850" pageHeight="1100" math="0" shadow="0">
      <root>
        <mxCell id="0" />
        <mxCell id="1" parent="0" />
        <mxCell id="Sgkh0BZ_JYuBIivqxvh_-1" value="Pengguna" style="swimlane;fontFamily=Times New Roman;" vertex="1" parent="1">
          <mxGeometry x="220" y="30" width="200" height="540" as="geometry" />
        </mxCell>
        <mxCell id="Sgkh0BZ_JYuBIivqxvh_-5" value="" style="edgeStyle=orthogonalEdgeStyle;rounded=0;orthogonalLoop=1;jettySize=auto;html=1;" edge="1" parent="Sgkh0BZ_JYuBIivqxvh_-1" source="Sgkh0BZ_JYuBIivqxvh_-3" target="Sgkh0BZ_JYuBIivqxvh_-4">
          <mxGeometry relative="1" as="geometry" />
        </mxCell>
        <mxCell id="Sgkh0BZ_JYuBIivqxvh_-3" value="" style="ellipse;html=1;shape=endState;fillColor=#000000;strokeColor=#ff0000;" vertex="1" parent="Sgkh0BZ_JYuBIivqxvh_-1">
          <mxGeometry x="85" y="40" width="30" height="30" as="geometry" />
        </mxCell>
        <mxCell id="Sgkh0BZ_JYuBIivqxvh_-4" value="&lt;font face=&quot;Times New Roman&quot;&gt;Membuka Aplikasi&lt;/font&gt;" style="rounded=0;whiteSpace=wrap;html=1;" vertex="1" parent="Sgkh0BZ_JYuBIivqxvh_-1">
          <mxGeometry x="50" y="90" width="100" height="40" as="geometry" />
        </mxCell>
        <mxCell id="Sgkh0BZ_JYuBIivqxvh_-13" value="&lt;font face=&quot;Times New Roman&quot;&gt;Klik Menu Monitoring&lt;/font&gt;" style="rounded=0;whiteSpace=wrap;html=1;" vertex="1" parent="Sgkh0BZ_JYuBIivqxvh_-1">
          <mxGeometry x="50" y="170" width="100" height="40" as="geometry" />
        </mxCell>
        <mxCell id="Sgkh0BZ_JYuBIivqxvh_-17" value="&lt;font face=&quot;Times New Roman&quot;&gt;Klik Tombol Cek Monitoring&lt;/font&gt;" style="rounded=0;whiteSpace=wrap;html=1;" vertex="1" parent="Sgkh0BZ_JYuBIivqxvh_-1">
          <mxGeometry x="50" y="330" width="100" height="40" as="geometry" />
        </mxCell>
        <mxCell id="Sgkh0BZ_JYuBIivqxvh_-2" value="Sistem" style="swimlane;fontFamily=Times New Roman;" vertex="1" parent="1">
          <mxGeometry x="420" y="30" width="200" height="540" as="geometry" />
        </mxCell>
        <mxCell id="Sgkh0BZ_JYuBIivqxvh_-11" value="&lt;font face=&quot;Times New Roman&quot;&gt;Menampilkan halaman beranda&lt;/font&gt;" style="rounded=0;whiteSpace=wrap;html=1;" vertex="1" parent="Sgkh0BZ_JYuBIivqxvh_-2">
          <mxGeometry x="50" y="90" width="100" height="40" as="geometry" />
        </mxCell>
        <mxCell id="Sgkh0BZ_JYuBIivqxvh_-15" value="&lt;font face=&quot;Times New Roman&quot;&gt;Sistem menampilkan data monitoring&lt;/font&gt;" style="rounded=0;whiteSpace=wrap;html=1;" vertex="1" parent="Sgkh0BZ_JYuBIivqxvh_-2">
          <mxGeometry x="50" y="250" width="100" height="40" as="geometry" />
        </mxCell>
        <mxCell id="Sgkh0BZ_JYuBIivqxvh_-22" value="" style="edgeStyle=orthogonalEdgeStyle;rounded=0;orthogonalLoop=1;jettySize=auto;html=1;" edge="1" parent="Sgkh0BZ_JYuBIivqxvh_-2" source="Sgkh0BZ_JYuBIivqxvh_-19" target="Sgkh0BZ_JYuBIivqxvh_-21">
          <mxGeometry relative="1" as="geometry" />
        </mxCell>
        <mxCell id="Sgkh0BZ_JYuBIivqxvh_-19" value="&lt;font face=&quot;Times New Roman&quot;&gt;Sistem menampilkan hasil data monitoring&lt;/font&gt;" style="rounded=0;whiteSpace=wrap;html=1;" vertex="1" parent="Sgkh0BZ_JYuBIivqxvh_-2">
          <mxGeometry x="50" y="400" width="110" height="60" as="geometry" />
        </mxCell>
        <mxCell id="Sgkh0BZ_JYuBIivqxvh_-21" value="" style="ellipse;html=1;shape=endState;fillColor=#000000;strokeColor=#ff0000;" vertex="1" parent="Sgkh0BZ_JYuBIivqxvh_-2">
          <mxGeometry x="90" y="490" width="30" height="30" as="geometry" />
        </mxCell>
        <mxCell id="Sgkh0BZ_JYuBIivqxvh_-12" value="" style="endArrow=classic;html=1;entryX=0;entryY=0.5;entryDx=0;entryDy=0;exitX=1;exitY=0.5;exitDx=0;exitDy=0;" edge="1" parent="1" source="Sgkh0BZ_JYuBIivqxvh_-4" target="Sgkh0BZ_JYuBIivqxvh_-11">
          <mxGeometry width="50" height="50" relative="1" as="geometry">
            <mxPoint x="370" y="170" as="sourcePoint" />
            <mxPoint x="420" y="120" as="targetPoint" />
          </mxGeometry>
        </mxCell>
        <mxCell id="Sgkh0BZ_JYuBIivqxvh_-14" value="" style="endArrow=classic;html=1;entryX=1;entryY=0.5;entryDx=0;entryDy=0;exitX=0.5;exitY=1;exitDx=0;exitDy=0;" edge="1" parent="1" source="Sgkh0BZ_JYuBIivqxvh_-11" target="Sgkh0BZ_JYuBIivqxvh_-13">
          <mxGeometry width="50" height="50" relative="1" as="geometry">
            <mxPoint x="370" y="240" as="sourcePoint" />
            <mxPoint x="420" y="190" as="targetPoint" />
            <Array as="points">
              <mxPoint x="520" y="220" />
            </Array>
          </mxGeometry>
        </mxCell>
        <mxCell id="Sgkh0BZ_JYuBIivqxvh_-16" value="" style="endArrow=classic;html=1;entryX=0;entryY=0.5;entryDx=0;entryDy=0;exitX=0.462;exitY=1.028;exitDx=0;exitDy=0;exitPerimeter=0;" edge="1" parent="1" source="Sgkh0BZ_JYuBIivqxvh_-13" target="Sgkh0BZ_JYuBIivqxvh_-15">
          <mxGeometry width="50" height="50" relative="1" as="geometry">
            <mxPoint x="370" y="300" as="sourcePoint" />
            <mxPoint x="420" y="250" as="targetPoint" />
            <Array as="points">
              <mxPoint x="316" y="300" />
            </Array>
          </mxGeometry>
        </mxCell>
        <mxCell id="Sgkh0BZ_JYuBIivqxvh_-18" value="" style="endArrow=classic;html=1;entryX=1;entryY=0.5;entryDx=0;entryDy=0;exitX=0.5;exitY=1;exitDx=0;exitDy=0;" edge="1" parent="1" source="Sgkh0BZ_JYuBIivqxvh_-15" target="Sgkh0BZ_JYuBIivqxvh_-17">
          <mxGeometry width="50" height="50" relative="1" as="geometry">
            <mxPoint x="370" y="360" as="sourcePoint" />
            <mxPoint x="420" y="310" as="targetPoint" />
            <Array as="points">
              <mxPoint x="520" y="380" />
            </Array>
          </mxGeometry>
        </mxCell>
        <mxCell id="Sgkh0BZ_JYuBIivqxvh_-20" value="" style="endArrow=classic;html=1;entryX=0;entryY=0.5;entryDx=0;entryDy=0;exitX=0.5;exitY=1;exitDx=0;exitDy=0;" edge="1" parent="1" source="Sgkh0BZ_JYuBIivqxvh_-17" target="Sgkh0BZ_JYuBIivqxvh_-19">
          <mxGeometry width="50" height="50" relative="1" as="geometry">
            <mxPoint x="370" y="430" as="sourcePoint" />
            <mxPoint x="420" y="380" as="targetPoint" />
            <Array as="points">
              <mxPoint x="320" y="460" />
            </Array>
          </mxGeometry>
        </mxCell>
      </root>
    </mxGraphModel>
  </diagram>
</mxfile>
